<svg xmlns="http://www.w3.org/2000/svg" width="640" height="640" viewBox="0 0 640 640">
  <defs>
    <style>
      .cls-1, .cls-2, .cls-3, .cls-4 {
        fill: none;
        stroke: #000;
      }

      .cls-1 {
        stroke-linecap: round;
      }

      .cls-1, .cls-2, .cls-4 {
        stroke-width: 6px;
      }

      .cls-1, .cls-2, .cls-3, .cls-6 {
        fill-rule: evenodd;
      }

      .cls-3 {
        stroke-width: 4px;
      }

      .cls-5, .cls-6 {
        fill: #fff;
      }
    </style>
  </defs>
  <g id="Artboard_1" data-name="Artboard 1">
    <path id="smile" class="cls-1" d="M257,522s22.144,33,63,33c48.171,0,66-33,66-33"/>
    <path id="nose_v" data-name="nose v" class="cls-2" d="M293,440l27,20,24-20"/>
    <path id="nose_line" data-name="nose line" class="cls-3" d="M319,393h2v64h-2V393Z"/>
    <circle id="right_eye" data-name="right eye" class="cls-4" cx="449" cy="330" r="64"/>
    <circle id="right_eye_circle" data-name="right eye circle" cx="448" cy="329" r="16"/>
    <ellipse id="right_eye_circle_shine" data-name="right eye circle shine" class="cls-5" cx="457.219" cy="321.781" rx="8.219" ry="8.219"/>
    <path id="right_eye_frame" data-name="right eye frame" class="cls-2" d="M513.523,333V266.037H385.345V331"/>
    <circle id="left_eye" data-name="left eye" class="cls-4" cx="193" cy="330" r="64"/>
    <circle id="left_eye_circle" data-name="left eye circle" cx="193" cy="329" r="16"/>
    <path id="left_eye_circle_shine" data-name="left eye circle shine" class="cls-6" d="M201.152,313.7A8.152,8.152,0,1,1,193,321.848,8.152,8.152,0,0,1,201.152,313.7Z"/>
    <path id="left_eye_frame" data-name="left eye frame" class="cls-2" d="M257.523,333V266.037H129.345V331"/>
    <circle id="conscience_eye" data-name="conscience eye" class="cls-4" cx="321" cy="138" r="64"/>
    <circle id="conscience_eye_circle" data-name="conscience eye circle" cx="320" cy="138" r="16"/>
    <path id="conscience_eye_shine" data-name="conscience eye shine" class="cls-6" d="M328.114,121.772A8.114,8.114,0,1,1,320,129.886,8.114,8.114,0,0,1,328.114,121.772Z"/>
    <path id="conscience_eye_frame" data-name="conscience eye frame" class="cls-2" d="M385.523,141V74.037H257.345V139"/>
    <path id="conecting_wire_1" data-name="conecting wire 1" class="cls-3" d="M257,335s23.839-24,63-24,65.345,22,65.345,22"/>
    <path id="conecting_wire_2" data-name="conecting wire 2" class="cls-3" d="M256.655,137S255.523,266.037,192,266.037"/>
    <path id="conecting_wire_3" data-name="conecting wire 3" class="cls-3" d="M385.345,137S386.477,266.037,450,266.037"/>
  </g>
</svg>
