<svg xmlns="http://www.w3.org/2000/svg" xmlns:xlink="http://www.w3.org/1999/xlink" width="640" height="640" viewBox="0 0 640 640">
  <defs>
    <clipPath id="clip-img-index-home">
      <rect width="640" height="640"/>
    </clipPath>
  </defs>
  <g id="img-index-home" clip-path="url(#clip-img-index-home)">
    <circle id="Ellipse_15" data-name="Ellipse 15" cx="64" cy="64" r="64" transform="translate(128 256)" fill="none" stroke="#505160" stroke-width="4"/>
    <circle id="Ellipse_2" data-name="Ellipse 2" cx="64" cy="64" r="64" transform="translate(256 128)" fill="none" stroke="#505160" stroke-width="4"/>
    <circle id="Ellipse_17" data-name="Ellipse 17" cx="64" cy="64" r="64" transform="translate(384 256)" fill="none" stroke="#505160" stroke-width="4"/>
    <line id="Line_1" data-name="Line 1" y2="64" transform="translate(320.5 351.466)" fill="none" stroke="#505160" stroke-linecap="round" stroke-width="5"/>
    <g id="Path_1" data-name="Path 1" transform="translate(256 384)" fill="none" stroke-linecap="round" stroke-linejoin="round">
      <path d="M128,64A64,64,0,0,1,0,64C36.453,94.747,79.924,100.019,128,64Z" stroke="none"/>
      <path d="M 123.4553604125977 72.14383697509766 C 119.9075317382812 74.53804016113281 116.3569793701172 76.73355102539062 112.8396377563477 78.70681762695312 C 107.1031188964844 81.92510223388672 101.2998580932617 84.63922119140625 95.59107971191406 86.7738037109375 C 89.9609375 88.87899780273438 84.27206420898438 90.47692108154297 78.68246459960938 91.52320098876953 C 73.17694091796875 92.55375671386719 67.62310028076172 93.07627868652344 62.17523956298828 93.07627868652344 C 42.29775238037109 93.07627868652344 22.97704315185547 86.24388885498047 4.629180908203125 72.74589538574219 C 5.359939575195312 77.76486206054688 6.72509765625 82.65247344970703 8.713462829589844 87.35347747802734 C 10.21684265136719 90.90785980224609 12.07781982421875 94.33638000488281 14.24468231201172 97.54377746582031 C 16.39167785644531 100.7217407226562 18.85748291015625 103.7102813720703 21.57360076904297 106.426399230957 C 24.28971862792969 109.1425170898438 27.27825927734375 111.6083221435547 30.45622253417969 113.7553176879883 C 33.66361999511719 115.9221801757812 37.09214019775391 117.7831573486328 40.64652252197266 119.2865371704102 C 48.04103851318359 122.4141616821289 55.89830017089844 124 64 124 C 72.10169982910156 124 79.95896148681641 122.4141616821289 87.35348510742188 119.2865371704102 C 90.90785980224609 117.7831573486328 94.33638000488281 115.9221801757812 97.54377746582031 113.7553176879883 C 100.7217407226562 111.6083221435547 103.7102813720703 109.1425170898438 106.426399230957 106.426399230957 C 109.1425170898438 103.7102813720703 111.6083221435547 100.7217407226562 113.7553176879883 97.54377746582031 C 115.9221801757812 94.33638000488281 117.7831573486328 90.90785980224609 119.2865371704102 87.35347747802734 C 121.3543090820312 82.4647216796875 122.7481307983398 77.37403106689453 123.4553604125977 72.14383697509766 M 0 64 C 18.94063568115234 79.97579956054688 39.78364562988281 89.07627105712891 62.17523193359375 89.07627105712891 C 82.878173828125 89.07627105712891 104.9038314819336 81.30403900146484 128 64 C 128 99.34622192382812 99.34622192382812 128 64 128 C 28.65377807617188 128 0 99.34622192382812 0 64 Z" stroke="none" fill="#505160"/>
    </g>
    <path id="Path_2" data-name="Path 2" d="M301.58,429.354l18.364,17.714,17.371-17.714" transform="translate(1 -30.534)" fill="none" stroke="#505160" stroke-linecap="round" stroke-linejoin="round" stroke-width="4"/>
    <path id="Path_3" data-name="Path 3" d="M384,320.9v-64H512v64" transform="translate(0 -0.901)" fill="none" stroke="#505160" stroke-linejoin="round" stroke-width="4"/>
    <path id="Path_4" data-name="Path 4" d="M384,320.9v-64H512v64" transform="translate(-128 -128.901)" fill="none" stroke="#505160" stroke-linejoin="round" stroke-width="4"/>
    <path id="Path_5" data-name="Path 5" d="M384,320.9v-64H512v64" transform="translate(-256 -0.901)" fill="none" stroke="#505160" stroke-linejoin="round" stroke-width="4"/>
    <path id="Subtraction_1" data-name="Subtraction 1" d="M16,32A16,16,0,0,1,4.686,4.686,16.026,16.026,0,0,1,20.712.705,8,8,0,1,0,31.3,11.289,16.005,16.005,0,0,1,16,32Z" transform="translate(432 304)" fill="#505160"/>
    <path id="Subtraction_2" data-name="Subtraction 2" d="M16,32A16,16,0,0,1,4.686,4.686,16.026,16.026,0,0,1,20.712.705,8,8,0,1,0,31.3,11.289,16.005,16.005,0,0,1,16,32Z" transform="translate(176 304)" fill="#505160"/>
    <path id="Subtraction_3" data-name="Subtraction 3" d="M16,32A16,16,0,0,1,4.686,4.686,16.026,16.026,0,0,1,20.712.705,8,8,0,1,0,31.3,11.289,16.005,16.005,0,0,1,16,32Z" transform="translate(304 176)" fill="#505160"/>
    <path id="Path_6" data-name="Path 6" d="M127.254,256S192,255.722,192,191.606" transform="translate(64)" fill="none" stroke="#505160" stroke-linecap="round" stroke-width="2"/>
    <path id="Path_7" data-name="Path 7" d="M192,256s-64.746-.278-64.746-64.394" transform="translate(256.746)" fill="none" stroke="#505160" stroke-linecap="round" stroke-width="2"/>
  </g>
</svg>
