<svg xmlns="http://www.w3.org/2000/svg" xmlns:xlink="http://www.w3.org/1999/xlink" width="640" height="640" viewBox="0 0 640 640">
  <defs>
    <linearGradient id="linear-gradient" x1="0.5" x2="0.5" y2="1" gradientUnits="objectBoundingBox">
      <stop offset="0" stop-color="#222cc6"/>
      <stop offset="1" stop-color="#353640"/>
    </linearGradient>
    <clipPath id="clip-img-index-home">
      <rect width="640" height="640"/>
    </clipPath>
  </defs>
  <g id="img-index-home" clip-path="url(#clip-img-index-home)">
    <circle id="Ellipse_15" data-name="Ellipse 15" cx="64" cy="64" r="64" transform="translate(128 256)" fill="#fff" stroke="#505160" stroke-width="4"/>
    <circle id="Ellipse_2" data-name="Ellipse 2" cx="64" cy="64" r="64" transform="translate(256 128)" fill="#fff" stroke="#505160" stroke-width="4"/>
    <circle id="Ellipse_17" data-name="Ellipse 17" cx="64" cy="64" r="64" transform="translate(384 256)" fill="#fff" stroke="#505160" stroke-width="4"/>
    <line id="Line_1" data-name="Line 1" y2="64" transform="translate(320.5 351.466)" fill="none" stroke="#505160" stroke-linecap="round" stroke-width="5"/>
    <g id="Path_1" data-name="Path 1" transform="translate(256 384)" fill="#fff" stroke-linecap="round" stroke-linejoin="round">
      <path d="M 64 126 C 55.62918090820312 126 47.50979995727539 124.3610000610352 39.86741638183594 121.128547668457 C 36.194091796875 119.5748748779297 32.65102005004883 117.651725769043 29.33659934997559 115.4125671386719 C 26.05316352844238 113.1943054199219 22.96550941467285 110.6467437744141 20.15938186645508 107.8406219482422 C 17.3532543182373 105.0344924926758 14.80569076538086 101.9468383789062 12.58743667602539 98.66339874267578 C 10.3482723236084 95.34898376464844 8.425127029418945 91.805908203125 6.87145471572876 88.13258361816406 C 3.897059679031372 81.10031890869141 2.271855592727661 73.66427612304688 2.031319141387939 66 L 125.9686813354492 66 C 125.728141784668 73.66427612304688 124.1029434204102 81.10031890869141 121.128547668457 88.13258361816406 C 119.5748748779297 91.805908203125 117.651725769043 95.34898376464844 115.4125671386719 98.66339874267578 C 113.1943054199219 101.9468383789062 110.6467437744141 105.0344924926758 107.8406219482422 107.8406219482422 C 105.0344924926758 110.6467437744141 101.9468383789062 113.1943054199219 98.66339874267578 115.4125671386719 C 95.34898376464844 117.651725769043 91.805908203125 119.5748748779297 88.13258361816406 121.128547668457 C 80.49019622802734 124.3610000610352 72.37081909179688 126 64 126 Z" stroke="none"/>
      <path d="M 4.130020141601562 68 C 4.566978454589844 74.68864440917969 6.103355407714844 81.18250274658203 8.713462829589844 87.35347747802734 C 10.21684265136719 90.90785980224609 12.07781982421875 94.33638000488281 14.24468231201172 97.54377746582031 C 16.39167785644531 100.7217407226562 18.85748291015625 103.7102813720703 21.57360076904297 106.426399230957 C 24.28971862792969 109.1425170898438 27.27825927734375 111.6083221435547 30.45622253417969 113.7553176879883 C 33.66361999511719 115.9221801757812 37.09214019775391 117.7831573486328 40.64652252197266 119.2865371704102 C 48.04103851318359 122.4141616821289 55.89830017089844 124 64 124 C 72.10169982910156 124 79.95896148681641 122.4141616821289 87.35348510742188 119.2865371704102 C 90.90785980224609 117.7831573486328 94.33638000488281 115.9221801757812 97.54377746582031 113.7553176879883 C 100.7217407226562 111.6083221435547 103.7102813720703 109.1425170898438 106.426399230957 106.426399230957 C 109.1425170898438 103.7102813720703 111.6083221435547 100.7217407226562 113.7553176879883 97.54377746582031 C 115.9221801757812 94.33638000488281 117.7831573486328 90.90785980224609 119.2865371704102 87.35347747802734 C 121.8966445922852 81.18250274658203 123.4330215454102 74.68864440917969 123.8699798583984 68 L 4.130020141601562 68 M 0 64 C 38.0953369140625 64 68.2840576171875 64 128 64 C 128 99.34622192382812 99.34622192382812 128 64 128 C 28.65377807617188 128 0 99.34622192382812 0 64 Z" stroke="none" fill="#505160"/>
    </g>
    <path id="Path_2" data-name="Path 2" d="M301.58,429.354l18.364,17.714,17.371-17.714" transform="translate(1 -30.534)" fill="none" stroke="#505160" stroke-linecap="round" stroke-linejoin="round" stroke-width="4"/>
    <path id="Path_3" data-name="Path 3" d="M384,320.9v-64H512v64" transform="translate(0 -0.901)" fill="none" stroke="#505160" stroke-linejoin="round" stroke-width="4"/>
    <path id="Path_4" data-name="Path 4" d="M384,320.9v-64H512v64" transform="translate(-128 -128.901)" fill="none" stroke="#505160" stroke-linejoin="round" stroke-width="4"/>
    <path id="Path_5" data-name="Path 5" d="M384,320.9v-64H512v64" transform="translate(-256 -0.901)" fill="none" stroke="#505160" stroke-linejoin="round" stroke-width="4"/>
    <path id="Subtraction_1" data-name="Subtraction 1" d="M16,32A16,16,0,0,1,4.686,4.686,16.026,16.026,0,0,1,20.712.705,8,8,0,1,0,31.3,11.289,16.005,16.005,0,0,1,16,32Z" transform="translate(432 304)" fill="url(#linear-gradient)"/>
    <path id="Subtraction_2" data-name="Subtraction 2" d="M16,32A16,16,0,0,1,4.686,4.686,16.026,16.026,0,0,1,20.712.705,8,8,0,1,0,31.3,11.289,16.005,16.005,0,0,1,16,32Z" transform="translate(176 304)" fill="url(#linear-gradient)"/>
    <path id="Subtraction_3" data-name="Subtraction 3" d="M16,32A16,16,0,0,1,4.686,4.686,16.026,16.026,0,0,1,20.712.705,8,8,0,1,0,31.3,11.289,16.005,16.005,0,0,1,16,32Z" transform="translate(304 176)" fill="url(#linear-gradient)"/>
    <path id="Path_6" data-name="Path 6" d="M127.254,256S192,255.722,192,191.606" transform="translate(64)" fill="none" stroke="#505160" stroke-linecap="round" stroke-width="2"/>
    <path id="Path_7" data-name="Path 7" d="M192,256s-64.746-.278-64.746-64.394" transform="translate(256.746)" fill="none" stroke="#505160" stroke-linecap="round" stroke-width="2"/>
    <line id="Line_2" data-name="Line 2" x2="128" transform="translate(256.5 320.5)" fill="none" stroke="#505160" stroke-width="2"/>
    <line id="Line_3" data-name="Line 3" x2="104" transform="translate(268.5 480.5)" fill="none" stroke="#505160" stroke-width="2"/>
  </g>
</svg>
