<svg width="640" height="640" viewBox="0 0 640 640" fill="none" xmlns="http://www.w3.org/2000/svg">
<rect x="128" y="257" width="128" height="63" rx="2" fill="white" fill-opacity="0.5" stroke="#505160" stroke-width="4"/>
<rect x="384" y="257" width="128" height="63" rx="2" fill="white" fill-opacity="0.5" stroke="#505160" stroke-width="4"/>
<rect x="256" y="129" width="128" height="63" rx="2" fill="white" fill-opacity="0.5" stroke="#505160" stroke-width="4"/>
<circle cx="192" cy="321" r="64" fill="white" stroke="#505160" stroke-width="4"/>
<circle cx="448" cy="321" r="64" fill="white" stroke="#505160" stroke-width="4"/>
<path d="M320 514C354.676 514 382.91 486.423 383.969 452.004C384.003 450.9 383.105 450 382 450H258C256.895 450 255.997 450.9 256.031 452.004C257.09 486.423 285.324 514 320 514Z" fill="white" stroke="#505160" stroke-width="4"/>
<circle cx="320" cy="193" r="64" fill="white" stroke="#505160" stroke-width="4"/>
<path fill-rule="evenodd" clip-rule="evenodd" d="M448 337C456.837 337 464 329.837 464 321V321C464 319.335 461.598 318.952 460.179 319.823C458.963 320.569 457.532 321 456 321C451.582 321 448 317.418 448 313C448 311.468 448.431 310.037 449.177 308.821C450.048 307.402 449.665 305 448 305V305C439.163 305 432 312.163 432 321C432 329.837 439.163 337 448 337Z" fill="url(#paint0_linear_1_2)"/>
<path fill-rule="evenodd" clip-rule="evenodd" d="M320 209C328.837 209 336 201.837 336 193V193C336 191.335 333.598 190.952 332.179 191.823C330.963 192.569 329.532 193 328 193C323.582 193 320 189.418 320 185C320 183.468 320.431 182.037 321.177 180.821C322.048 179.402 321.665 177 320 177V177C311.163 177 304 184.163 304 193C304 201.837 311.163 209 320 209Z" fill="url(#paint1_linear_1_2)"/>
<path fill-rule="evenodd" clip-rule="evenodd" d="M192 337C200.837 337 208 329.837 208 321V321C208 319.335 205.598 318.952 204.179 319.823C202.963 320.569 201.532 321 200 321C195.582 321 192 317.418 192 313C192 311.468 192.431 310.037 193.177 308.821C194.048 307.402 193.665 305 192 305V305C183.163 305 176 312.163 176 321C176 329.837 183.163 337 192 337Z" fill="url(#paint2_linear_1_2)"/>
<line x1="263" y1="481" x2="375" y2="481" stroke="#505160" stroke-width="2" stroke-linecap="round"/>
<line x1="257" y1="322" x2="381" y2="322" stroke="#505160" stroke-width="2" stroke-linecap="round"/>
<line x1="321" y1="413" x2="321" y2="353" stroke="#505160" stroke-width="4" stroke-linecap="round"/>
<path d="M302 399.5L319.608 415.718C320.389 416.437 321.596 416.421 322.357 415.681L339 399.5" stroke="#505160" stroke-width="4" stroke-linecap="round"/>
<path d="M192 257C231.5 257 256 234.5 256 193" stroke="#505160" stroke-width="2" stroke-linecap="round"/>
<path d="M448 257C408.5 257 384 234.5 384 193" stroke="#505160" stroke-width="2" stroke-linecap="round"/>
<defs>
<linearGradient id="paint0_linear_1_2" x1="448" y1="305" x2="448" y2="337" gradientUnits="userSpaceOnUse">
<stop stop-color="#222CC3"/>
<stop offset="1" stop-color="#505160"/>
</linearGradient>
<linearGradient id="paint1_linear_1_2" x1="320" y1="177" x2="320" y2="209" gradientUnits="userSpaceOnUse">
<stop stop-color="#222CC3"/>
<stop offset="1" stop-color="#505160"/>
</linearGradient>
<linearGradient id="paint2_linear_1_2" x1="192" y1="305" x2="192" y2="337" gradientUnits="userSpaceOnUse">
<stop stop-color="#222CC3"/>
<stop offset="1" stop-color="#505160"/>
</linearGradient>
</defs>
</svg>
